<svg width="24" height="24" viewBox="0 0 24 24" fill="none" xmlns="http://www.w3.org/2000/svg">
<path fill-rule="evenodd" clip-rule="evenodd" d="M20 5H16.83L15.59 3.65C15.22 3.24 14.68 3 14.12 3H9.88C9.32 3 8.78 3.24 8.4 3.65L7.17 5H4C2.9 5 2 5.9 2 7V19C2 20.1 2.9 21 4 21H20C21.1 21 22 20.1 22 19V7C22 5.9 21.1 5 20 5ZM12 16C13.6568 16 15 14.6568 15 13C15 11.3431 13.6568 9.99997 12 9.99997C10.3431 9.99997 8.99997 11.3431 8.99997 13C8.99997 14.6568 10.3431 16 12 16ZM7.00003 13C7.00003 15.76 9.24003 18 12 18C14.76 18 17 15.76 17 13C17 10.24 14.76 8.00003 12 8.00003C9.24003 8.00003 7.00003 10.24 7.00003 13Z" fill="white"/>
</svg>
