<svg width="24" height="24" viewBox="0 0 24 24" fill="none" xmlns="http://www.w3.org/2000/svg">
<path d="M7.64828 7.84624C7.87502 7.6195 8.17202 7.50618 8.46903 7.50618C8.76603 7.50618 9.06282 7.6195 9.28945 7.84624L10.7425 9.29903V8.87166V3.16059C10.7425 2.51949 11.262 2 11.9031 2C12.5442 2 13.0637 2.51949 13.0637 3.16059V8.87155V9.37749L13.5696 8.87155L14.5952 7.84613C14.822 7.61939 15.1186 7.50607 15.4157 7.50607C15.7127 7.50607 16.0097 7.61939 16.2364 7.84613C16.5153 8.12467 16.6213 8.51041 16.5569 8.87155C16.5521 8.89767 16.5436 8.92368 16.537 8.94925C16.5271 8.98924 16.5164 9.02891 16.5018 9.0677C16.4922 9.09382 16.4812 9.11928 16.4695 9.14474C16.4513 9.18528 16.4304 9.22407 16.4074 9.26264C16.3952 9.28308 16.3839 9.3034 16.3703 9.32296C16.3306 9.38022 16.2872 9.43573 16.2362 9.48676L14.5845 11.1384L12.7716 12.9514C12.5446 13.1781 12.2478 13.2907 11.9511 13.2907C11.9483 13.2907 11.9455 13.2907 11.9426 13.2907C11.9398 13.2907 11.9341 13.2907 11.9341 13.2907C11.6374 13.2907 11.3406 13.1781 11.1137 12.9514L9.30071 11.1384L7.64904 9.48676C7.59801 9.43573 7.55463 9.38044 7.51551 9.32329C7.50163 9.30319 7.49027 9.28253 7.47781 9.2621C7.45519 9.22385 7.43443 9.18528 7.41629 9.14528C7.40438 9.11917 7.39301 9.09338 7.3834 9.06683C7.36952 9.0288 7.35903 8.99033 7.34908 8.95143C7.34231 8.92455 7.33346 8.89844 7.32865 8.87123C7.2633 8.51051 7.36908 8.12478 7.64828 7.84624ZM20.8274 19.2061C20.8274 20.7727 19.291 22 17.3298 22H6.4973C4.53639 22 3 20.7729 3 19.2061V11.6657C3 10.3416 4.09907 9.26297 5.623 8.95996C5.689 9.61352 5.9753 10.2194 6.44627 10.6902L6.89516 11.1391H6.4973C5.70343 11.1391 5.26732 11.5348 5.26732 11.6657V19.2061C5.26732 19.3373 5.70354 19.7327 6.4973 19.7327H17.3301C18.124 19.7327 18.5601 19.337 18.5601 19.2061V11.6657C18.5601 11.5348 18.1239 11.1391 17.3301 11.1391H16.9892L17.4384 10.6899C17.9063 10.2223 18.1917 9.62052 18.2597 8.97132C19.7547 9.28964 20.8274 10.358 20.8274 11.666V19.2061Z" fill="#0B8BD2"/>
</svg>
