<svg width="343" height="34" viewBox="0 0 343 34" fill="none" xmlns="http://www.w3.org/2000/svg">
<path d="M40.9355 9.20605H42.8496V13H44.0801V3.13574H40.4229C38.5703 3.13574 37.2646 4.37988 37.2646 6.16406C37.2646 7.63379 38.1875 8.73438 39.582 9.05566L36.752 13H38.2148L40.9355 9.20605ZM42.8496 8.09863H40.7441C39.3359 8.09863 38.5293 7.40137 38.5293 6.16406C38.5293 4.93359 39.3291 4.24316 40.7441 4.24316H42.8496V8.09863ZM56.6309 7.88672C56.4258 6.57422 55.332 5.50098 53.541 5.50098C51.4766 5.50098 50.1641 6.99121 50.1641 9.28809C50.1641 11.6328 51.4834 13.1299 53.5479 13.1299C55.3184 13.1299 56.4189 12.1318 56.6309 10.7783H55.4414C55.2227 11.6123 54.5322 12.0703 53.541 12.0703C52.2285 12.0703 51.3809 10.9902 51.3809 9.28809C51.3809 7.62012 52.2148 6.56055 53.541 6.56055C54.6006 6.56055 55.25 7.15527 55.4414 7.88672H56.6309ZM61.5322 13.1299C63.6309 13.1299 64.9297 11.6807 64.9297 9.31543C64.9297 6.94336 63.6309 5.50098 61.5322 5.50098C59.4336 5.50098 58.1348 6.94336 58.1348 9.31543C58.1348 11.6807 59.4336 13.1299 61.5322 13.1299ZM61.5322 12.0703C60.1377 12.0703 59.3516 11.0586 59.3516 9.31543C59.3516 7.56543 60.1377 6.56055 61.5322 6.56055C62.9268 6.56055 63.7129 7.56543 63.7129 9.31543C63.7129 11.0586 62.9268 12.0703 61.5322 12.0703ZM71.6221 6.61523V5.63086H66.9053V13H68.0811V6.61523H71.6221ZM74.6367 9.7666L74.8691 6.61523H77.4463V13H78.6221V5.63086H73.8027L73.5156 9.73926C73.4199 11.1064 73.1396 11.9609 72.4082 11.9609C72.2373 11.9609 72.1006 11.9268 72.0391 11.9062V12.9863C72.1211 13.0205 72.2578 13.0615 72.4697 13.0615C74.001 13.0615 74.4863 11.79 74.6367 9.7666ZM83.0176 13.1299C84.002 13.1299 84.8086 12.6992 85.2871 11.9131H85.3965V13H86.5176V7.95508C86.5176 6.42383 85.5127 5.50098 83.7148 5.50098C82.1426 5.50098 80.9805 6.28027 80.8232 7.46289H82.0127C82.1768 6.88184 82.792 6.54688 83.6738 6.54688C84.7744 6.54688 85.3418 7.0459 85.3418 7.95508V8.625L83.2158 8.75488C81.5 8.85742 80.5293 9.61621 80.5293 10.9355C80.5293 12.2822 81.5889 13.1299 83.0176 13.1299ZM83.2363 12.0977C82.3818 12.0977 81.7461 11.6602 81.7461 10.9082C81.7461 10.1699 82.2383 9.78027 83.3594 9.70508L85.3418 9.5752V10.252C85.3418 11.3047 84.4463 12.0977 83.2363 12.0977ZM94.9258 7.88672C94.7207 6.57422 93.627 5.50098 91.8359 5.50098C89.7715 5.50098 88.459 6.99121 88.459 9.28809C88.459 11.6328 89.7783 13.1299 91.8428 13.1299C93.6133 13.1299 94.7139 12.1318 94.9258 10.7783H93.7363C93.5176 11.6123 92.8271 12.0703 91.8359 12.0703C90.5234 12.0703 89.6758 10.9902 89.6758 9.28809C89.6758 7.62012 90.5098 6.56055 91.8359 6.56055C92.8955 6.56055 93.5449 7.15527 93.7363 7.88672H94.9258ZM101.68 11.0928C101.372 11.7422 100.729 12.0908 99.7793 12.0908C98.5283 12.0908 97.7148 11.168 97.6533 9.71191V9.65723H102.951V9.20605C102.951 6.91602 101.741 5.50098 99.752 5.50098C97.7285 5.50098 96.4297 7.00488 96.4297 9.32227C96.4297 11.6533 97.708 13.1299 99.752 13.1299C101.365 13.1299 102.514 12.3506 102.855 11.0928H101.68ZM99.7383 6.54004C100.907 6.54004 101.687 7.40137 101.714 8.70703H97.6533C97.7422 7.40137 98.5625 6.54004 99.7383 6.54004ZM109.78 13H110.956V5.63086H109.78V8.67969H106.103V5.63086H104.927V13H106.103V9.66406H109.78V13ZM113.779 8.89844C113.779 11.3662 114.408 13.3623 115.721 15.0986H116.719C115.741 13.8545 114.989 11.2227 114.989 8.89844C114.989 6.58789 115.748 3.94922 116.719 2.70508H115.721C114.408 4.44141 113.779 6.4375 113.779 8.89844ZM123.493 13H124.669V5.63086H123.493V8.67969H119.815V5.63086H118.64V13H119.815V9.66406H123.493V13ZM129.064 13.1299C130.049 13.1299 130.855 12.6992 131.334 11.9131H131.443V13H132.564V7.95508C132.564 6.42383 131.56 5.50098 129.762 5.50098C128.189 5.50098 127.027 6.28027 126.87 7.46289H128.06C128.224 6.88184 128.839 6.54688 129.721 6.54688C130.821 6.54688 131.389 7.0459 131.389 7.95508V8.625L129.263 8.75488C127.547 8.85742 126.576 9.61621 126.576 10.9355C126.576 12.2822 127.636 13.1299 129.064 13.1299ZM129.283 12.0977C128.429 12.0977 127.793 11.6602 127.793 10.9082C127.793 10.1699 128.285 9.78027 129.406 9.70508L131.389 9.5752V10.252C131.389 11.3047 130.493 12.0977 129.283 12.0977ZM137.391 8.90527C137.391 6.4375 136.762 4.44141 135.449 2.70508H134.451C135.429 3.94922 136.181 6.58105 136.181 8.90527C136.181 11.2158 135.422 13.8545 134.451 15.0986H135.449C136.762 13.3623 137.391 11.3662 137.391 8.90527ZM150.27 7.88672C150.064 6.57422 148.971 5.50098 147.18 5.50098C145.115 5.50098 143.803 6.99121 143.803 9.28809C143.803 11.6328 145.122 13.1299 147.187 13.1299C148.957 13.1299 150.058 12.1318 150.27 10.7783H149.08C148.861 11.6123 148.171 12.0703 147.18 12.0703C145.867 12.0703 145.02 10.9902 145.02 9.28809C145.02 7.62012 145.854 6.56055 147.18 6.56055C148.239 6.56055 148.889 7.15527 149.08 7.88672H150.27ZM157.215 13.0684C158.876 13.0684 159.566 12.043 160.366 10.1768L163.388 3.13574H162.109L159.525 9.52734H159.416L156.771 3.13574H155.458L158.828 10.8945C158.438 11.6191 157.953 11.9268 157.215 11.9268C156.921 11.9268 156.75 11.8926 156.668 11.8721V12.9795C156.75 13.0205 156.941 13.0684 157.215 13.0684ZM170.518 7.88672C170.312 6.57422 169.219 5.50098 167.428 5.50098C165.363 5.50098 164.051 6.99121 164.051 9.28809C164.051 11.6328 165.37 13.1299 167.435 13.1299C169.205 13.1299 170.306 12.1318 170.518 10.7783H169.328C169.109 11.6123 168.419 12.0703 167.428 12.0703C166.115 12.0703 165.268 10.9902 165.268 9.28809C165.268 7.62012 166.102 6.56055 167.428 6.56055C168.487 6.56055 169.137 7.15527 169.328 7.88672H170.518ZM174.154 9.7666L174.387 6.61523H176.964V13H178.14V5.63086H173.32L173.033 9.73926C172.938 11.1064 172.657 11.9609 171.926 11.9609C171.755 11.9609 171.618 11.9268 171.557 11.9062V12.9863C171.639 13.0205 171.775 13.0615 171.987 13.0615C173.519 13.0615 174.004 11.79 174.154 9.7666ZM183.513 13.1299C185.611 13.1299 186.91 11.6807 186.91 9.31543C186.91 6.94336 185.611 5.50098 183.513 5.50098C181.414 5.50098 180.115 6.94336 180.115 9.31543C180.115 11.6807 181.414 13.1299 183.513 13.1299ZM183.513 12.0703C182.118 12.0703 181.332 11.0586 181.332 9.31543C181.332 7.56543 182.118 6.56055 183.513 6.56055C184.907 6.56055 185.693 7.56543 185.693 9.31543C185.693 11.0586 184.907 12.0703 183.513 12.0703ZM192.023 13C193.609 13 194.546 12.166 194.546 10.8809C194.546 10.0195 193.951 9.36328 193.015 9.2334V9.12402C193.705 8.98047 194.218 8.2832 194.218 7.55176C194.218 6.38965 193.404 5.63086 192.01 5.63086H188.886V13H192.023ZM190.062 6.61523H191.859C192.687 6.61523 193.056 7.03906 193.056 7.6748C193.056 8.37891 192.625 8.74805 191.668 8.74805H190.062V6.61523ZM190.062 9.73242H191.771C192.83 9.73242 193.377 10.0811 193.377 10.8604C193.377 11.6055 192.898 12.0156 191.996 12.0156H190.062V9.73242ZM197.731 13L201.402 7.50391H201.512V13H202.688V5.63086H201.512L197.841 11.127H197.731V5.63086H196.556V13H197.731ZM208.956 13H210.132V5.63086H207.568C205.88 5.63086 204.8 6.55371 204.8 8.07129C204.8 9.08301 205.429 9.84863 206.468 10.1426L204.41 13H205.812L207.691 10.3613H208.956V13ZM207.568 9.37695C206.604 9.37695 205.976 8.82324 205.976 8.04395C205.976 7.14844 206.598 6.61523 207.568 6.61523H208.956V9.37695H207.568ZM213.646 13V7.75684H213.775L216.106 12.7949H217.022L219.354 7.75684H219.483V13H220.666V5.63086H219.292L216.646 11.3457H216.537L213.898 5.63086H212.47V13H213.646ZM224.187 13L227.857 7.50391H227.967V13H229.143V5.63086H227.967L224.296 11.127H224.187V5.63086H223.011V13H224.187ZM228.562 30L232.198 20.1357H230.906L228.008 28.4072H227.898L225 20.1357H223.708L227.345 30H228.562ZM234.393 21.209C234.844 21.209 235.213 20.8398 235.213 20.3887C235.213 19.9375 234.844 19.5684 234.393 19.5684C233.941 19.5684 233.572 19.9375 233.572 20.3887C233.572 20.8398 233.941 21.209 234.393 21.209ZM233.805 30H234.98V22.6309H233.805V30ZM237.715 20.7236V22.6309H236.525V23.6152H237.715V28.0859C237.715 29.4941 238.323 30.0547 239.841 30.0547C240.073 30.0547 240.299 30.0273 240.531 29.9863V28.9951C240.312 29.0156 240.196 29.0225 239.984 29.0225C239.219 29.0225 238.891 28.6533 238.891 27.7852V23.6152H240.531V22.6309H238.891V20.7236H237.715ZM248.871 30H250.163L246.526 20.1357H245.31L241.673 30H242.965L243.956 27.1768H247.88L248.871 30ZM245.863 21.7285H245.973L247.518 26.1309H244.318L245.863 21.7285ZM251.811 30H252.986V19.7051H251.811V30ZM260.15 28.0928C259.843 28.7422 259.2 29.0908 258.25 29.0908C256.999 29.0908 256.186 28.168 256.124 26.7119V26.6572H261.422V26.2061C261.422 23.916 260.212 22.501 258.223 22.501C256.199 22.501 254.9 24.0049 254.9 26.3223C254.9 28.6533 256.179 30.1299 258.223 30.1299C259.836 30.1299 260.984 29.3506 261.326 28.0928H260.15ZM258.209 23.54C259.378 23.54 260.157 24.4014 260.185 25.707H256.124C256.213 24.4014 257.033 23.54 258.209 23.54ZM263.268 30H264.443V25.4336C264.443 24.3945 265.188 23.5605 266.152 23.5605C267.082 23.5605 267.69 24.1211 267.69 24.9961V30H268.866V25.2627C268.866 24.3262 269.55 23.5605 270.575 23.5605C271.614 23.5605 272.127 24.0938 272.127 25.1807V30H273.303V24.9072C273.303 23.3623 272.462 22.501 270.958 22.501C269.939 22.501 269.099 23.0137 268.702 23.793H268.593C268.251 23.0273 267.554 22.501 266.556 22.501C265.571 22.501 264.833 22.9727 264.498 23.793H264.389V22.6309H263.268V30Z" fill="black"/>
<path d="M242.821 13V3.13574H236.73L236.375 9.26074C236.286 10.8057 236.026 11.9336 234.912 11.9336C234.803 11.9336 234.618 11.9131 234.543 11.8926V12.9932C234.659 13.0342 234.837 13.0615 235.021 13.0615C236.765 13.0615 237.387 11.6807 237.537 9.30859L237.852 4.24316H241.591V13H242.821ZM246.499 13L250.17 7.50391H250.279V13H251.455V5.63086H250.279L246.608 11.127H246.499V5.63086H245.323V13H246.499ZM260.868 14.9482V12.0156H259.692V5.63086H258.517V12.0156H254.976V5.63086H253.8V13H259.761V14.9482H260.868ZM267.301 11.0928C266.993 11.7422 266.351 12.0908 265.4 12.0908C264.149 12.0908 263.336 11.168 263.274 9.71191V9.65723H268.572V9.20605C268.572 6.91602 267.362 5.50098 265.373 5.50098C263.35 5.50098 262.051 7.00488 262.051 9.32227C262.051 11.6533 263.329 13.1299 265.373 13.1299C266.986 13.1299 268.135 12.3506 268.477 11.0928H267.301ZM265.359 6.54004C266.528 6.54004 267.308 7.40137 267.335 8.70703H263.274C263.363 7.40137 264.184 6.54004 265.359 6.54004ZM275.401 13H276.577V5.63086H275.401V8.67969H271.724V5.63086H270.548V13H271.724V9.66406H275.401V13ZM281.424 13.123C283.14 13.123 284.322 12.1934 284.322 10.8262C284.322 10.0059 283.816 9.41113 282.839 9.19922V9.08984C283.57 8.91895 284.056 8.24219 284.056 7.49023C284.056 6.31445 283.112 5.50098 281.465 5.50098C279.94 5.50098 278.86 6.2666 278.703 7.47656H279.865C279.961 6.88184 280.604 6.49902 281.465 6.49902C282.415 6.49902 282.894 6.95703 282.894 7.5791C282.894 8.35156 282.367 8.72754 281.424 8.72754H280.275V9.71191H281.424C282.552 9.71191 283.153 10.0811 283.153 10.8877C283.153 11.6191 282.511 12.1318 281.424 12.1318C280.501 12.1318 279.852 11.7559 279.708 11.1133H278.498C278.628 12.3369 279.824 13.123 281.424 13.123ZM287.474 13L291.145 7.50391H291.254V13H292.43V5.63086H291.254L287.583 11.127H287.474V5.63086H286.298V13H287.474ZM297.81 13.1299C299.908 13.1299 301.207 11.6807 301.207 9.31543C301.207 6.94336 299.908 5.50098 297.81 5.50098C295.711 5.50098 294.412 6.94336 294.412 9.31543C294.412 11.6807 295.711 13.1299 297.81 13.1299ZM297.81 12.0703C296.415 12.0703 295.629 11.0586 295.629 9.31543C295.629 7.56543 296.415 6.56055 297.81 6.56055C299.204 6.56055 299.99 7.56543 299.99 9.31543C299.99 11.0586 299.204 12.0703 297.81 12.0703ZM308.036 13H309.212V5.63086H308.036V8.67969H304.358V5.63086H303.183V13H304.358V9.66406H308.036V13ZM316.403 13H317.579V5.63086H316.403V8.67969H312.726V5.63086H311.55V13H312.726V9.66406H316.403V13ZM322.952 13.1299C325.051 13.1299 326.35 11.6807 326.35 9.31543C326.35 6.94336 325.051 5.50098 322.952 5.50098C320.854 5.50098 319.555 6.94336 319.555 9.31543C319.555 11.6807 320.854 13.1299 322.952 13.1299ZM322.952 12.0703C321.558 12.0703 320.771 11.0586 320.771 9.31543C320.771 7.56543 321.558 6.56055 322.952 6.56055C324.347 6.56055 325.133 7.56543 325.133 9.31543C325.133 11.0586 324.347 12.0703 322.952 12.0703ZM333.042 6.61523V5.63086H328.325V13H329.501V6.61523H333.042ZM337.663 13.1299C339.762 13.1299 341.061 11.6807 341.061 9.31543C341.061 6.94336 339.762 5.50098 337.663 5.50098C335.564 5.50098 334.266 6.94336 334.266 9.31543C334.266 11.6807 335.564 13.1299 337.663 13.1299ZM337.663 12.0703C336.269 12.0703 335.482 11.0586 335.482 9.31543C335.482 7.56543 336.269 6.56055 337.663 6.56055C339.058 6.56055 339.844 7.56543 339.844 9.31543C339.844 11.0586 339.058 12.0703 337.663 12.0703ZM38.3447 30L42.0156 24.5039H42.125V30H43.3008V22.6309H42.125L38.4541 28.127H38.3447V22.6309H37.1689V30H38.3447ZM53.7256 30.2324C55.8242 30.2324 57.3828 29.0635 57.7109 27.252H56.46C56.1455 28.3936 55.0996 29.0977 53.7256 29.0977C51.8252 29.0977 50.6357 27.5459 50.6357 25.0713C50.6357 22.5967 51.8252 21.0381 53.7188 21.0381C55.0791 21.0381 56.1318 21.8379 56.46 23.1094H57.7109C57.417 21.209 55.7969 19.9033 53.7188 19.9033C51.0391 19.9033 49.3711 21.8857 49.3711 25.0713C49.3711 28.25 51.0459 30.2324 53.7256 30.2324ZM64.6426 28.0928C64.335 28.7422 63.6924 29.0908 62.7422 29.0908C61.4912 29.0908 60.6777 28.168 60.6162 26.7119V26.6572H65.9141V26.2061C65.9141 23.916 64.7041 22.501 62.7148 22.501C60.6914 22.501 59.3926 24.0049 59.3926 26.3223C59.3926 28.6533 60.6709 30.1299 62.7148 30.1299C64.3281 30.1299 65.4766 29.3506 65.8184 28.0928H64.6426ZM62.7012 23.54C63.8701 23.54 64.6494 24.4014 64.6768 25.707H60.6162C60.7051 24.4014 61.5254 23.54 62.7012 23.54ZM71.4854 22.501C70.4805 22.501 69.5986 23.0137 69.127 23.8613H69.0176V22.6309H67.8965V32.4609H69.0723V28.8926H69.1816C69.585 29.6719 70.4326 30.1299 71.4854 30.1299C73.3584 30.1299 74.582 28.6191 74.582 26.3154C74.582 23.998 73.3652 22.501 71.4854 22.501ZM71.2051 29.0703C69.8789 29.0703 69.0381 28.0039 69.0381 26.3154C69.0381 24.6201 69.8789 23.5605 71.2119 23.5605C72.5586 23.5605 73.3652 24.5928 73.3652 26.3154C73.3652 28.0381 72.5586 29.0703 71.2051 29.0703ZM79.6953 30C81.2812 30 82.2178 29.166 82.2178 27.8809C82.2178 27.0195 81.623 26.3633 80.6865 26.2334V26.124C81.377 25.9805 81.8896 25.2832 81.8896 24.5518C81.8896 23.3896 81.0762 22.6309 79.6816 22.6309H76.5576V30H79.6953ZM77.7334 23.6152H79.5312C80.3584 23.6152 80.7275 24.0391 80.7275 24.6748C80.7275 25.3789 80.2969 25.748 79.3398 25.748H77.7334V23.6152ZM77.7334 26.7324H79.4424C80.502 26.7324 81.0488 27.0811 81.0488 27.8604C81.0488 28.6055 80.5703 29.0156 79.668 29.0156H77.7334V26.7324ZM85.4033 30L89.0742 24.5039H89.1836V30H90.3594V22.6309H89.1836L85.5127 28.127H85.4033V22.6309H84.2275V30H85.4033ZM98.8086 24.8867C98.6035 23.5742 97.5098 22.501 95.7188 22.501C93.6543 22.501 92.3418 23.9912 92.3418 26.2881C92.3418 28.6328 93.6611 30.1299 95.7256 30.1299C97.4961 30.1299 98.5967 29.1318 98.8086 27.7783H97.6191C97.4004 28.6123 96.71 29.0703 95.7188 29.0703C94.4062 29.0703 93.5586 27.9902 93.5586 26.2881C93.5586 24.6201 94.3926 23.5605 95.7188 23.5605C96.7783 23.5605 97.4277 24.1553 97.6191 24.8867H98.8086ZM105.528 30H106.704V22.6309H105.528V25.6797H101.851V22.6309H100.675V30H101.851V26.6641H105.528V30ZM112.077 30.1299C114.176 30.1299 115.475 28.6807 115.475 26.3154C115.475 23.9434 114.176 22.501 112.077 22.501C109.979 22.501 108.68 23.9434 108.68 26.3154C108.68 28.6807 109.979 30.1299 112.077 30.1299ZM112.077 29.0703C110.683 29.0703 109.896 28.0586 109.896 26.3154C109.896 24.5654 110.683 23.5605 112.077 23.5605C113.472 23.5605 114.258 24.5654 114.258 26.3154C114.258 28.0586 113.472 29.0703 112.077 29.0703ZM122.167 23.6152V22.6309H117.45V30H118.626V23.6152H122.167ZM126.788 30.1299C128.887 30.1299 130.186 28.6807 130.186 26.3154C130.186 23.9434 128.887 22.501 126.788 22.501C124.689 22.501 123.391 23.9434 123.391 26.3154C123.391 28.6807 124.689 30.1299 126.788 30.1299ZM126.788 29.0703C125.394 29.0703 124.607 28.0586 124.607 26.3154C124.607 24.5654 125.394 23.5605 126.788 23.5605C128.183 23.5605 128.969 24.5654 128.969 26.3154C128.969 28.0586 128.183 29.0703 126.788 29.0703ZM140.241 30.2324C142.34 30.2324 143.898 29.0635 144.227 27.252H142.976C142.661 28.3936 141.615 29.0977 140.241 29.0977C138.341 29.0977 137.151 27.5459 137.151 25.0713C137.151 22.5967 138.341 21.0381 140.234 21.0381C141.595 21.0381 142.647 21.8379 142.976 23.1094H144.227C143.933 21.209 142.312 19.9033 140.234 19.9033C137.555 19.9033 135.887 21.8857 135.887 25.0713C135.887 28.25 137.562 30.2324 140.241 30.2324ZM149.306 30.1299C151.404 30.1299 152.703 28.6807 152.703 26.3154C152.703 23.9434 151.404 22.501 149.306 22.501C147.207 22.501 145.908 23.9434 145.908 26.3154C145.908 28.6807 147.207 30.1299 149.306 30.1299ZM149.306 29.0703C147.911 29.0703 147.125 28.0586 147.125 26.3154C147.125 24.5654 147.911 23.5605 149.306 23.5605C150.7 23.5605 151.486 24.5654 151.486 26.3154C151.486 28.0586 150.7 29.0703 149.306 29.0703ZM159.396 23.6152V22.6309H154.679V30H155.854V23.6152H159.396ZM162.41 26.7666L162.643 23.6152H165.22V30H166.396V22.6309H161.576L161.289 26.7393C161.193 28.1064 160.913 28.9609 160.182 28.9609C160.011 28.9609 159.874 28.9268 159.812 28.9062V29.9863C159.895 30.0205 160.031 30.0615 160.243 30.0615C161.774 30.0615 162.26 28.79 162.41 26.7666ZM170.791 30.1299C171.775 30.1299 172.582 29.6992 173.061 28.9131H173.17V30H174.291V24.9551C174.291 23.4238 173.286 22.501 171.488 22.501C169.916 22.501 168.754 23.2803 168.597 24.4629H169.786C169.95 23.8818 170.565 23.5469 171.447 23.5469C172.548 23.5469 173.115 24.0459 173.115 24.9551V25.625L170.989 25.7549C169.273 25.8574 168.303 26.6162 168.303 27.9355C168.303 29.2822 169.362 30.1299 170.791 30.1299ZM171.01 29.0977C170.155 29.0977 169.52 28.6602 169.52 27.9082C169.52 27.1699 170.012 26.7803 171.133 26.7051L173.115 26.5752V27.252C173.115 28.3047 172.22 29.0977 171.01 29.0977ZM176.595 30H185.7V22.6309H184.524V29.0156H181.735V22.6309H180.56V29.0156H177.771V22.6309H176.595V30ZM192.926 28.0928C192.618 28.7422 191.976 29.0908 191.025 29.0908C189.774 29.0908 188.961 28.168 188.899 26.7119V26.6572H194.197V26.2061C194.197 23.916 192.987 22.501 190.998 22.501C188.975 22.501 187.676 24.0049 187.676 26.3223C187.676 28.6533 188.954 30.1299 190.998 30.1299C192.611 30.1299 193.76 29.3506 194.102 28.0928H192.926ZM190.984 23.54C192.153 23.54 192.933 24.4014 192.96 25.707H188.899C188.988 24.4014 189.809 23.54 190.984 23.54ZM201.026 30H202.202V22.6309H201.026V25.6797H197.349V22.6309H196.173V30H197.349V26.6641H201.026V30ZM205.716 30L209.387 24.5039H209.496V30H210.672V22.6309H209.496L205.825 28.127H205.716V22.6309H204.54V30H205.716ZM216.94 30H218.116V22.6309H215.553C213.864 22.6309 212.784 23.5537 212.784 25.0713C212.784 26.083 213.413 26.8486 214.452 27.1426L212.395 30H213.796L215.676 27.3613H216.94V30ZM215.553 26.377C214.589 26.377 213.96 25.8232 213.96 25.0439C213.96 24.1484 214.582 23.6152 215.553 23.6152H216.94V26.377H215.553Z" fill="#007AFF"/>
<path fill-rule="evenodd" clip-rule="evenodd" d="M0 12C0 5.37258 5.37258 0 12 0C18.6274 0 24 5.37258 24 12C24 18.6274 18.6274 24 12 24C5.37258 24 0 18.6274 0 12Z" fill="#89AE3A"/>
<mask id="mask0" mask-type="alpha" maskUnits="userSpaceOnUse" x="0" y="0" width="24" height="24">
<path fill-rule="evenodd" clip-rule="evenodd" d="M0 12C0 5.37258 5.37258 0 12 0C18.6274 0 24 5.37258 24 12C24 18.6274 18.6274 24 12 24C5.37258 24 0 18.6274 0 12Z" fill="green"/>
</mask>
<g mask="url(#mask0)">
</g>
<path d="M7 11.7654L10.284 15.0494L16.3333 9" stroke="white" stroke-width="2" stroke-linecap="round" stroke-linejoin="round"/>
</svg>
