<svg width="197" height="36" viewBox="0 0 197 36" fill="none" xmlns="http://www.w3.org/2000/svg">
<path d="M22.9985 24.8V12.822H13.6104V24.8H15.1128V14.1833H21.521V24.8H22.9985ZM29.3122 24.9577C31.8605 24.9577 33.4377 23.1979 33.4377 20.3259C33.4377 17.4455 31.8605 15.694 29.3122 15.694C26.7638 15.694 25.1867 17.4455 25.1867 20.3259C25.1867 23.1979 26.7638 24.9577 29.3122 24.9577ZM29.3122 23.6711C27.6188 23.6711 26.6642 22.4426 26.6642 20.3259C26.6642 18.2009 27.6188 16.9807 29.3122 16.9807C31.0055 16.9807 31.9601 18.2009 31.9601 20.3259C31.9601 22.4426 31.0055 23.6711 29.3122 23.6711ZM36.8543 24.8L41.3118 18.1262H41.4446V24.8H42.8724V15.8517H41.4446L36.9871 22.5256H36.8543V15.8517H35.4266V24.8H36.8543ZM52.7221 18.591C52.4731 16.9973 51.145 15.694 48.9702 15.694C46.4634 15.694 44.8696 17.5036 44.8696 20.2927C44.8696 23.1398 46.4717 24.9577 48.9785 24.9577C51.1284 24.9577 52.4648 23.7458 52.7221 22.1022H51.2778C51.0122 23.1149 50.1738 23.6711 48.9702 23.6711C47.3764 23.6711 46.3471 22.3596 46.3471 20.2927C46.3471 18.2673 47.3598 16.9807 48.9702 16.9807C50.2568 16.9807 51.0454 17.7028 51.2778 18.591H52.7221ZM56.4791 20.7243L59.9821 24.8H61.8331L57.6579 20.0685L61.6754 15.8517H59.9406L56.4791 19.5954H56.006V15.8517H54.5783V24.8H56.006V20.7243H56.4791Z" fill="black" fill-opacity="0.4"/>
</svg>

