<svg width="41" height="40" viewBox="0 0 41 40" fill="none" xmlns="http://www.w3.org/2000/svg">
<ellipse opacity="0.24" cx="20.9016" cy="20" rx="19.9468" ry="20" fill="#5AC9E9"/>
<g clip-path="url(#clip0)">
<path d="M29.424 11.4583C28.4553 10.487 27.1854 10 25.9152 10C24.6456 10 23.3754 10.487 22.4095 11.4583L17.3953 16.4851L12.3821 21.5109C10.4447 23.4508 10.4447 26.6015 12.3834 28.5442C14.3183 30.4855 17.4607 30.4855 19.3967 28.5442L23.3418 24.59L29.4228 18.4926C31.3587 16.549 31.3587 13.3982 29.424 11.4583ZM28.3555 17.4207L23.3418 22.447L18.4621 17.554L23.4755 12.5277C24.1262 11.8747 24.9936 11.5129 25.913 11.5129C26.8351 11.5129 27.7025 11.8747 28.354 12.5277C29.7006 13.8759 29.7006 16.073 28.3555 17.4207Z" fill="#5AC9E9"/>
</g>
<defs>
<clipPath id="clip0">
<rect width="19.9468" height="20" fill="white" transform="translate(10.9282 10)"/>
</clipPath>
</defs>
</svg>
