<svg width="40" height="40" viewBox="0 0 40 40" fill="none" xmlns="http://www.w3.org/2000/svg">
<circle opacity="0.24" cx="20" cy="20" r="20" fill="#44DB5E"/>
<path d="M11.4645 17.1227C10.9732 18.5356 10.8206 20.0737 11.0709 21.6117C11.1624 22.1763 11.7422 22.5181 12.2794 22.3289L19.8933 19.6281L27.6355 16.9091C28.1726 16.7199 28.4106 16.0912 28.1298 15.5968C26.485 12.7008 23.4058 10.9521 20.1436 10.9521C19.4081 10.9521 18.6635 11.0406 17.925 11.2268C17.6442 11.297 17.3665 11.3794 17.0888 11.477C16.9179 11.5381 16.7531 11.6022 16.5884 11.6693C16.2222 11.8219 15.8712 11.9958 15.5386 12.1911C13.5946 13.3141 12.1755 15.0872 11.4645 17.1227Z" fill="#44DB5E"/>
<path d="M28.0109 17.9712L20.2565 20.6933L12.6517 23.3879C12.1146 23.5771 11.8796 24.2058 12.1604 24.7002C13.8052 27.5901 16.8844 29.3357 20.1436 29.3357C21.1568 29.3357 22.1883 29.1678 23.1984 28.8108C27.4555 27.3094 29.9121 22.9942 29.2194 18.6883C29.1278 18.1268 28.5511 17.7819 28.0109 17.9712Z" fill="#44DB5E"/>
</svg>
